<svg width="213" height="343" viewBox="0 0 213 343" fill="none" xmlns="http://www.w3.org/2000/svg">
<path d="M18.755 312.085L18.58 307.815L32.475 293.5H36.465L25.72 304.84L23.76 307.01L18.755 312.085ZM15.675 318V293.5H19.175V318H15.675ZM33.035 318L22.99 306.31L25.335 303.72L37.13 318H33.035ZM49.4063 318V293.5H58.9613C61.1079 293.5 62.9396 293.838 64.4563 294.515C65.9729 295.192 67.1396 296.172 67.9563 297.455C68.7729 298.738 69.1813 300.267 69.1813 302.04C69.1813 303.813 68.7729 305.342 67.9563 306.625C67.1396 307.885 65.9729 308.853 64.4563 309.53C62.9396 310.207 61.1079 310.545 58.9613 310.545H51.3313L52.9063 308.935V318H49.4063ZM65.7863 318L59.5563 309.11H63.3013L69.6013 318H65.7863ZM52.9063 309.285L51.3313 307.57H58.8563C61.0963 307.57 62.7879 307.092 63.9313 306.135C65.0979 305.155 65.6813 303.79 65.6813 302.04C65.6813 300.29 65.0979 298.937 63.9313 297.98C62.7879 297.023 61.0963 296.545 58.8563 296.545H51.3313L52.9063 294.795V309.285ZM88.9841 318V308.62L89.7891 310.79L79.2541 293.5H82.9991L91.8541 308.095H89.8241L98.7141 293.5H102.179L91.6791 310.79L92.4491 308.62V318H88.9841ZM120.933 318.28C119.066 318.28 117.281 318 115.578 317.44C113.874 316.857 112.533 316.11 111.553 315.2L112.848 312.47C113.781 313.287 114.971 313.963 116.418 314.5C117.864 315.037 119.369 315.305 120.933 315.305C122.356 315.305 123.511 315.142 124.398 314.815C125.284 314.488 125.938 314.045 126.358 313.485C126.778 312.902 126.988 312.248 126.988 311.525C126.988 310.685 126.708 310.008 126.148 309.495C125.611 308.982 124.899 308.573 124.013 308.27C123.149 307.943 122.193 307.663 121.143 307.43C120.093 307.197 119.031 306.928 117.958 306.625C116.908 306.298 115.939 305.89 115.053 305.4C114.189 304.91 113.489 304.257 112.953 303.44C112.416 302.6 112.148 301.527 112.148 300.22C112.148 298.96 112.474 297.805 113.128 296.755C113.804 295.682 114.831 294.83 116.208 294.2C117.608 293.547 119.381 293.22 121.528 293.22C122.951 293.22 124.363 293.407 125.763 293.78C127.163 294.153 128.376 294.69 129.403 295.39L128.248 298.19C127.198 297.49 126.089 296.988 124.923 296.685C123.756 296.358 122.624 296.195 121.528 296.195C120.151 296.195 119.019 296.37 118.133 296.72C117.246 297.07 116.593 297.537 116.173 298.12C115.776 298.703 115.578 299.357 115.578 300.08C115.578 300.943 115.846 301.632 116.383 302.145C116.943 302.658 117.654 303.067 118.518 303.37C119.404 303.673 120.373 303.953 121.423 304.21C122.473 304.443 123.523 304.712 124.573 305.015C125.646 305.318 126.614 305.715 127.478 306.205C128.364 306.695 129.076 307.348 129.613 308.165C130.149 308.982 130.418 310.032 130.418 311.315C130.418 312.552 130.079 313.707 129.403 314.78C128.726 315.83 127.676 316.682 126.253 317.335C124.853 317.965 123.079 318.28 120.933 318.28ZM151.246 318.28C149.379 318.28 147.594 318 145.891 317.44C144.188 316.857 142.846 316.11 141.866 315.2L143.161 312.47C144.094 313.287 145.284 313.963 146.731 314.5C148.178 315.037 149.683 315.305 151.246 315.305C152.669 315.305 153.824 315.142 154.711 314.815C155.598 314.488 156.251 314.045 156.671 313.485C157.091 312.902 157.301 312.248 157.301 311.525C157.301 310.685 157.021 310.008 156.461 309.495C155.924 308.982 155.213 308.573 154.326 308.27C153.463 307.943 152.506 307.663 151.456 307.43C150.406 307.197 149.344 306.928 148.271 306.625C147.221 306.298 146.253 305.89 145.366 305.4C144.503 304.91 143.803 304.257 143.266 303.44C142.729 302.6 142.461 301.527 142.461 300.22C142.461 298.96 142.788 297.805 143.441 296.755C144.118 295.682 145.144 294.83 146.521 294.2C147.921 293.547 149.694 293.22 151.841 293.22C153.264 293.22 154.676 293.407 156.076 293.78C157.476 294.153 158.689 294.69 159.716 295.39L158.561 298.19C157.511 297.49 156.403 296.988 155.236 296.685C154.069 296.358 152.938 296.195 151.841 296.195C150.464 296.195 149.333 296.37 148.446 296.72C147.559 297.07 146.906 297.537 146.486 298.12C146.089 298.703 145.891 299.357 145.891 300.08C145.891 300.943 146.159 301.632 146.696 302.145C147.256 302.658 147.968 303.067 148.831 303.37C149.718 303.673 150.686 303.953 151.736 304.21C152.786 304.443 153.836 304.712 154.886 305.015C155.959 305.318 156.928 305.715 157.791 306.205C158.678 306.695 159.389 307.348 159.926 308.165C160.463 308.982 160.731 310.032 160.731 311.315C160.731 312.552 160.393 313.707 159.716 314.78C159.039 315.83 157.989 316.682 156.566 317.335C155.166 317.965 153.393 318.28 151.246 318.28Z" fill="black"/>
<path d="M14.592 105V15.4H24.064V96.808H74.24V105H14.592ZM110.575 55.464H157.935V63.528H110.575V55.464ZM111.599 96.808H165.487V105H102.127V15.4H163.567V23.592H111.599V96.808ZM23.04 173.464H70.4V181.528H23.04V173.464ZM24.064 214.808H77.952V223H14.592V133.4H76.032V141.592H24.064V214.808ZM125.305 223V141.592H93.817V133.4H166.265V141.592H134.777V223H125.305Z" fill="black"/>
<line x1="14" y1="262" x2="163" y2="262" stroke="black" stroke-width="4"/>
</svg>
