<svg width="213" height="343" viewBox="0 0 213 343" fill="none" xmlns="http://www.w3.org/2000/svg">
<path d="M17.81 311.805L17.74 309.565L33.35 293.5H35.52L24.6 304.805L23.585 305.89L17.81 311.805ZM16.27 318V293.5H18.055V318H16.27ZM34.085 318L23.06 305.4L24.285 304.105L36.255 318H34.085ZM49.4544 318V293.5H58.2394C60.2927 293.5 62.0544 293.827 63.5244 294.48C64.9944 295.133 66.126 296.078 66.9194 297.315C67.7127 298.528 68.1094 300.01 68.1094 301.76C68.1094 303.463 67.7127 304.933 66.9194 306.17C66.126 307.383 64.9944 308.328 63.5244 309.005C62.0544 309.658 60.2927 309.985 58.2394 309.985H50.4344L51.2394 309.145V318H49.4544ZM66.4644 318L60.0944 309.11H62.1244L68.4944 318H66.4644ZM51.2394 309.25L50.4344 308.41H58.2394C60.876 308.41 62.871 307.827 64.2244 306.66C65.601 305.493 66.2894 303.86 66.2894 301.76C66.2894 299.637 65.601 298.003 64.2244 296.86C62.871 295.693 60.876 295.11 58.2394 295.11H50.4344L51.2394 294.235V309.25ZM88.653 318V309.11L89.073 310.265L78.783 293.5H80.743L90.088 308.725H89.108L98.453 293.5H100.308L90.018 310.265L90.438 309.11V318H88.653ZM119.255 318.175C117.435 318.175 115.709 317.872 114.075 317.265C112.465 316.635 111.217 315.83 110.33 314.85L111.135 313.52C111.975 314.383 113.119 315.118 114.565 315.725C116.035 316.308 117.587 316.6 119.22 316.6C120.854 316.6 122.184 316.39 123.21 315.97C124.26 315.527 125.03 314.943 125.52 314.22C126.034 313.497 126.29 312.692 126.29 311.805C126.29 310.755 126.01 309.915 125.45 309.285C124.89 308.655 124.155 308.153 123.245 307.78C122.335 307.407 121.344 307.092 120.27 306.835C119.197 306.578 118.112 306.31 117.015 306.03C115.919 305.727 114.915 305.342 114.005 304.875C113.095 304.408 112.36 303.778 111.8 302.985C111.264 302.168 110.995 301.118 110.995 299.835C110.995 298.668 111.299 297.595 111.905 296.615C112.512 295.635 113.457 294.842 114.74 294.235C116.024 293.628 117.669 293.325 119.675 293.325C121.029 293.325 122.359 293.523 123.665 293.92C124.995 294.317 126.127 294.853 127.06 295.53L126.395 296.965C125.369 296.265 124.26 295.752 123.07 295.425C121.904 295.075 120.772 294.9 119.675 294.9C118.112 294.9 116.817 295.122 115.79 295.565C114.764 296.008 114.005 296.603 113.515 297.35C113.025 298.073 112.78 298.89 112.78 299.8C112.78 300.85 113.049 301.69 113.585 302.32C114.145 302.95 114.88 303.452 115.79 303.825C116.7 304.198 117.704 304.513 118.8 304.77C119.897 305.027 120.982 305.307 122.055 305.61C123.129 305.89 124.12 306.263 125.03 306.73C125.94 307.197 126.675 307.827 127.235 308.62C127.795 309.413 128.075 310.44 128.075 311.7C128.075 312.843 127.76 313.917 127.13 314.92C126.5 315.9 125.532 316.693 124.225 317.3C122.942 317.883 121.285 318.175 119.255 318.175ZM149.158 318.175C147.338 318.175 145.612 317.872 143.978 317.265C142.368 316.635 141.12 315.83 140.233 314.85L141.038 313.52C141.878 314.383 143.022 315.118 144.468 315.725C145.938 316.308 147.49 316.6 149.123 316.6C150.757 316.6 152.087 316.39 153.113 315.97C154.163 315.527 154.933 314.943 155.423 314.22C155.937 313.497 156.193 312.692 156.193 311.805C156.193 310.755 155.913 309.915 155.353 309.285C154.793 308.655 154.058 308.153 153.148 307.78C152.238 307.407 151.247 307.092 150.173 306.835C149.1 306.578 148.015 306.31 146.918 306.03C145.822 305.727 144.818 305.342 143.908 304.875C142.998 304.408 142.263 303.778 141.703 302.985C141.167 302.168 140.898 301.118 140.898 299.835C140.898 298.668 141.202 297.595 141.808 296.615C142.415 295.635 143.36 294.842 144.643 294.235C145.927 293.628 147.572 293.325 149.578 293.325C150.932 293.325 152.262 293.523 153.568 293.92C154.898 294.317 156.03 294.853 156.963 295.53L156.298 296.965C155.272 296.265 154.163 295.752 152.973 295.425C151.807 295.075 150.675 294.9 149.578 294.9C148.015 294.9 146.72 295.122 145.693 295.565C144.667 296.008 143.908 296.603 143.418 297.35C142.928 298.073 142.683 298.89 142.683 299.8C142.683 300.85 142.952 301.69 143.488 302.32C144.048 302.95 144.783 303.452 145.693 303.825C146.603 304.198 147.607 304.513 148.703 304.77C149.8 305.027 150.885 305.307 151.958 305.61C153.032 305.89 154.023 306.263 154.933 306.73C155.843 307.197 156.578 307.827 157.138 308.62C157.698 309.413 157.978 310.44 157.978 311.7C157.978 312.843 157.663 313.917 157.033 314.92C156.403 315.9 155.435 316.693 154.128 317.3C152.845 317.883 151.188 318.175 149.158 318.175Z" fill="black"/>
<path d="M16.384 105V15.4H20.736V101.032H73.216V105H16.384ZM106.628 57.512H156.036V61.48H106.628V57.512ZM107.396 101.032H163.588V105H103.044V15.4H161.796V19.368H107.396V101.032ZM19.968 175.512H69.376V179.48H19.968V175.512ZM20.736 219.032H76.928V223H16.384V133.4H75.136V137.368H20.736V219.032ZM126.588 223V137.368H93.692V133.4H163.708V137.368H130.812V223H126.588Z" fill="black"/>
<line x1="14" y1="263" x2="163" y2="263" stroke="black" stroke-width="2"/>
</svg>
