<svg width="213" height="343" viewBox="0 0 213 343" fill="none" xmlns="http://www.w3.org/2000/svg">
<path d="M19.35 312.225L19.105 306.835L31.95 293.5H37.06L26.385 304.84L23.865 307.605L19.35 312.225ZM15.29 318V293.5H19.84V318H15.29ZM32.37 318L22.99 306.835L26 303.51L37.69 318H32.37ZM49.3972 318V293.5H59.4772C61.6472 293.5 63.5022 293.85 65.0422 294.55C66.6056 295.25 67.8072 296.253 68.6472 297.56C69.4872 298.867 69.9072 300.418 69.9072 302.215C69.9072 304.012 69.4872 305.563 68.6472 306.87C67.8072 308.153 66.6056 309.145 65.0422 309.845C63.5022 310.522 61.6472 310.86 59.4772 310.86H51.9172L53.9472 308.795V318H49.3972ZM65.4272 318L59.2322 309.11H64.0972L70.3272 318H65.4272ZM53.9472 309.285L51.9172 307.115H59.2672C61.2739 307.115 62.7789 306.683 63.7822 305.82C64.8089 304.957 65.3222 303.755 65.3222 302.215C65.3222 300.652 64.8089 299.45 63.7822 298.61C62.7789 297.77 61.2739 297.35 59.2672 297.35H51.9172L53.9472 295.11V309.285ZM89.251 318V308.305L90.266 311.105L79.626 293.5H84.491L93.031 307.675H90.301L98.911 293.5H103.391L92.751 311.105L93.801 308.305V318H89.251ZM122.028 318.35C120.115 318.35 118.283 318.082 116.533 317.545C114.783 316.985 113.395 316.273 112.368 315.41L113.943 311.875C114.923 312.645 116.136 313.287 117.583 313.8C119.03 314.313 120.511 314.57 122.028 314.57C123.311 314.57 124.35 314.43 125.143 314.15C125.936 313.87 126.52 313.497 126.893 313.03C127.266 312.54 127.453 311.992 127.453 311.385C127.453 310.638 127.185 310.043 126.648 309.6C126.111 309.133 125.411 308.772 124.548 308.515C123.708 308.235 122.763 307.978 121.713 307.745C120.686 307.512 119.648 307.243 118.598 306.94C117.571 306.613 116.626 306.205 115.763 305.715C114.923 305.202 114.235 304.525 113.698 303.685C113.161 302.845 112.893 301.772 112.893 300.465C112.893 299.135 113.243 297.922 113.943 296.825C114.666 295.705 115.751 294.818 117.198 294.165C118.668 293.488 120.523 293.15 122.763 293.15C124.233 293.15 125.691 293.337 127.138 293.71C128.585 294.083 129.845 294.62 130.918 295.32L129.483 298.855C128.386 298.202 127.255 297.723 126.088 297.42C124.921 297.093 123.801 296.93 122.728 296.93C121.468 296.93 120.441 297.082 119.648 297.385C118.878 297.688 118.306 298.085 117.933 298.575C117.583 299.065 117.408 299.625 117.408 300.255C117.408 301.002 117.665 301.608 118.178 302.075C118.715 302.518 119.403 302.868 120.243 303.125C121.106 303.382 122.063 303.638 123.113 303.895C124.163 304.128 125.201 304.397 126.228 304.7C127.278 305.003 128.223 305.4 129.063 305.89C129.926 306.38 130.615 307.045 131.128 307.885C131.665 308.725 131.933 309.787 131.933 311.07C131.933 312.377 131.571 313.59 130.848 314.71C130.148 315.807 129.063 316.693 127.593 317.37C126.123 318.023 124.268 318.35 122.028 318.35ZM152.615 318.35C150.701 318.35 148.87 318.082 147.12 317.545C145.37 316.985 143.981 316.273 142.955 315.41L144.53 311.875C145.51 312.645 146.723 313.287 148.17 313.8C149.616 314.313 151.098 314.57 152.615 314.57C153.898 314.57 154.936 314.43 155.73 314.15C156.523 313.87 157.106 313.497 157.48 313.03C157.853 312.54 158.04 311.992 158.04 311.385C158.04 310.638 157.771 310.043 157.235 309.6C156.698 309.133 155.998 308.772 155.135 308.515C154.295 308.235 153.35 307.978 152.3 307.745C151.273 307.512 150.235 307.243 149.185 306.94C148.158 306.613 147.213 306.205 146.35 305.715C145.51 305.202 144.821 304.525 144.285 303.685C143.748 302.845 143.48 301.772 143.48 300.465C143.48 299.135 143.83 297.922 144.53 296.825C145.253 295.705 146.338 294.818 147.785 294.165C149.255 293.488 151.11 293.15 153.35 293.15C154.82 293.15 156.278 293.337 157.725 293.71C159.171 294.083 160.431 294.62 161.505 295.32L160.07 298.855C158.973 298.202 157.841 297.723 156.675 297.42C155.508 297.093 154.388 296.93 153.315 296.93C152.055 296.93 151.028 297.082 150.235 297.385C149.465 297.688 148.893 298.085 148.52 298.575C148.17 299.065 147.995 299.625 147.995 300.255C147.995 301.002 148.251 301.608 148.765 302.075C149.301 302.518 149.99 302.868 150.83 303.125C151.693 303.382 152.65 303.638 153.7 303.895C154.75 304.128 155.788 304.397 156.815 304.7C157.865 305.003 158.81 305.4 159.65 305.89C160.513 306.38 161.201 307.045 161.715 307.885C162.251 308.725 162.52 309.787 162.52 311.07C162.52 312.377 162.158 313.59 161.435 314.71C160.735 315.807 159.65 316.693 158.18 317.37C156.71 318.023 154.855 318.35 152.615 318.35Z" fill="black"/>
<path d="M13.44 105V15.4H26.24V93.864H74.752V105H13.44ZM113.248 54.056H159.328V64.936H113.248V54.056ZM114.4 93.864H166.624V105H101.6V15.4H164.832V26.536H114.4V93.864ZM25.088 172.056H71.168V182.936H25.088V172.056ZM26.24 211.864H78.464V223H13.44V133.4H76.672V144.536H26.24V211.864ZM124.662 223V144.536H93.942V133.4H168.054V144.536H137.334V223H124.662Z" fill="black"/>
<line x1="14" y1="262" x2="163" y2="262" stroke="black" stroke-width="4"/>
</svg>
