<svg width="213" height="343" viewBox="0 0 213 343" fill="none" xmlns="http://www.w3.org/2000/svg">
<path d="M18.23 311.91L18.125 308.76L32.965 293.5H35.94L25.125 304.84L23.655 306.415L18.23 311.91ZM15.99 318V293.5H18.58V318H15.99ZM33.595 318L23.025 305.82L24.775 303.93L36.675 318H33.595ZM49.4478 318V293.5H58.6178C60.6945 293.5 62.4795 293.838 63.9728 294.515C65.4661 295.168 66.6095 296.125 67.4028 297.385C68.2195 298.622 68.6278 300.127 68.6278 301.9C68.6278 303.627 68.2195 305.12 67.4028 306.38C66.6095 307.617 65.4661 308.573 63.9728 309.25C62.4795 309.903 60.6945 310.23 58.6178 310.23H50.8828L52.0378 309.04V318H49.4478ZM66.1778 318L59.8778 309.11H62.6778L69.0128 318H66.1778ZM52.0378 309.25L50.8828 308.025H58.5478C60.9978 308.025 62.8528 307.488 64.1128 306.415C65.3961 305.342 66.0378 303.837 66.0378 301.9C66.0378 299.94 65.3961 298.423 64.1128 297.35C62.8528 296.277 60.9978 295.74 58.5478 295.74H50.8828L52.0378 294.515V309.25ZM88.819 318V308.9L89.414 310.51L79.019 293.5H81.784L90.919 308.445H89.449L98.584 293.5H101.174L90.779 310.51L91.374 308.9V318H88.819ZM120.008 318.21C118.188 318.21 116.438 317.918 114.758 317.335C113.101 316.728 111.818 315.958 110.908 315.025L111.923 313.03C112.786 313.87 113.941 314.582 115.388 315.165C116.858 315.725 118.398 316.005 120.008 316.005C121.548 316.005 122.796 315.818 123.753 315.445C124.733 315.048 125.445 314.523 125.888 313.87C126.355 313.217 126.588 312.493 126.588 311.7C126.588 310.743 126.308 309.973 125.748 309.39C125.211 308.807 124.5 308.352 123.613 308.025C122.726 307.675 121.746 307.372 120.673 307.115C119.6 306.858 118.526 306.59 117.453 306.31C116.38 306.007 115.388 305.61 114.478 305.12C113.591 304.63 112.868 303.988 112.308 303.195C111.771 302.378 111.503 301.317 111.503 300.01C111.503 298.797 111.818 297.688 112.448 296.685C113.101 295.658 114.093 294.842 115.423 294.235C116.753 293.605 118.456 293.29 120.533 293.29C121.91 293.29 123.275 293.488 124.628 293.885C125.981 294.258 127.148 294.783 128.128 295.46L127.253 297.525C126.203 296.825 125.083 296.312 123.893 295.985C122.726 295.658 121.595 295.495 120.498 295.495C119.028 295.495 117.815 295.693 116.858 296.09C115.901 296.487 115.19 297.023 114.723 297.7C114.28 298.353 114.058 299.1 114.058 299.94C114.058 300.897 114.326 301.667 114.863 302.25C115.423 302.833 116.146 303.288 117.033 303.615C117.943 303.942 118.935 304.233 120.008 304.49C121.081 304.747 122.143 305.027 123.193 305.33C124.266 305.633 125.246 306.03 126.133 306.52C127.043 306.987 127.766 307.617 128.303 308.41C128.863 309.203 129.143 310.242 129.143 311.525C129.143 312.715 128.816 313.823 128.163 314.85C127.51 315.853 126.506 316.67 125.153 317.3C123.823 317.907 122.108 318.21 120.008 318.21ZM150.116 318.21C148.296 318.21 146.546 317.918 144.866 317.335C143.21 316.728 141.926 315.958 141.016 315.025L142.031 313.03C142.895 313.87 144.05 314.582 145.496 315.165C146.966 315.725 148.506 316.005 150.116 316.005C151.656 316.005 152.905 315.818 153.861 315.445C154.841 315.048 155.553 314.523 155.996 313.87C156.463 313.217 156.696 312.493 156.696 311.7C156.696 310.743 156.416 309.973 155.856 309.39C155.32 308.807 154.608 308.352 153.721 308.025C152.835 307.675 151.855 307.372 150.781 307.115C149.708 306.858 148.635 306.59 147.561 306.31C146.488 306.007 145.496 305.61 144.586 305.12C143.7 304.63 142.976 303.988 142.416 303.195C141.88 302.378 141.611 301.317 141.611 300.01C141.611 298.797 141.926 297.688 142.556 296.685C143.21 295.658 144.201 294.842 145.531 294.235C146.861 293.605 148.565 293.29 150.641 293.29C152.018 293.29 153.383 293.488 154.736 293.885C156.09 294.258 157.256 294.783 158.236 295.46L157.361 297.525C156.311 296.825 155.191 296.312 154.001 295.985C152.835 295.658 151.703 295.495 150.606 295.495C149.136 295.495 147.923 295.693 146.966 296.09C146.01 296.487 145.298 297.023 144.831 297.7C144.388 298.353 144.166 299.1 144.166 299.94C144.166 300.897 144.435 301.667 144.971 302.25C145.531 302.833 146.255 303.288 147.141 303.615C148.051 303.942 149.043 304.233 150.116 304.49C151.19 304.747 152.251 305.027 153.301 305.33C154.375 305.633 155.355 306.03 156.241 306.52C157.151 306.987 157.875 307.617 158.411 308.41C158.971 309.203 159.251 310.242 159.251 311.525C159.251 312.715 158.925 313.823 158.271 314.85C157.618 315.853 156.615 316.67 155.261 317.3C153.931 317.907 152.216 318.21 150.116 318.21Z" fill="black"/>
<path d="M15.616 105V15.4H22.144V99.112H73.728V105H15.616ZM108.411 56.616H156.923V62.376H108.411V56.616ZM109.179 99.112H164.475V105H102.651V15.4H162.555V21.288H109.179V99.112ZM21.376 174.616H69.888V180.376H21.376V174.616ZM22.144 217.112H77.44V223H15.616V133.4H75.52V139.288H22.144V217.112ZM126.073 223V139.288H93.817V133.4H164.857V139.288H132.601V223H126.073Z" fill="black"/>
<line x1="14" y1="262.5" x2="163" y2="262.5" stroke="black" stroke-width="3"/>
</svg>
